<svg width="57" height="47" viewBox="0 0 57 47" fill="none" xmlns="http://www.w3.org/2000/svg">
<path d="M52.1643 0.401775C44.6476 3.50761 12.4028 16.8428 3.49133 20.4697C-2.47941 22.794 1.01784 24.9742 1.01784 24.9742C1.01784 24.9742 6.11599 26.7157 10.4927 28.0321C14.8626 29.3416 17.1918 27.8812 17.1918 27.8812L37.7355 14.0661C45.0255 9.1228 43.2734 13.1953 41.5282 14.9437C37.7355 18.7214 31.4693 24.6863 26.2269 29.4856C23.8977 31.5218 25.0589 33.2702 26.0826 34.1409C29.8684 37.3427 40.2159 43.8835 40.7999 44.3223C43.878 46.5025 49.9312 49.6289 50.8519 43.0127L54.4935 20.1886C55.6615 12.4823 56.8295 5.35877 56.9738 3.32249C57.4136 -1.62079 52.1643 0.415488 52.1643 0.415488V0.401775Z" fill="white"/>
</svg>
