<svg width="52" height="52" viewBox="0 0 52 52" fill="none" xmlns="http://www.w3.org/2000/svg">
<path fill-rule="evenodd" clip-rule="evenodd" d="M52 25.3297C52 39.3143 40.5716 50.6593 26.4737 50.6593C21.9989 50.6593 17.7921 49.5153 14.1336 47.5073L0 52L4.60594 38.4086C2.28211 34.5892 0.947405 30.1144 0.947405 25.3297C0.947405 11.3391 12.3758 0 26.4737 0C40.5716 0 52 11.3391 52 25.3297ZM26.4737 4.03392C14.6401 4.03392 5.01111 13.5854 5.01111 25.3297C5.01111 29.9892 6.53054 34.3032 9.09866 37.8128L6.41733 45.7197L14.6639 43.098C18.0543 45.3205 22.1121 46.6195 26.4737 46.6195C38.3073 46.6195 47.9303 37.068 47.9303 25.3237C47.9303 13.5795 38.3014 4.02796 26.4737 4.02796V4.03392ZM39.362 31.1631C39.2011 30.9009 38.784 30.746 38.1643 30.4361C37.5387 30.1263 34.4581 28.6247 33.8861 28.4162C33.3141 28.2076 32.891 28.1063 32.4799 28.726C32.0628 29.3457 30.8651 30.746 30.4957 31.1631C30.1322 31.5802 29.7688 31.6278 29.1431 31.318C28.5175 31.0081 26.4975 30.3527 24.1082 28.2374C22.2491 26.5869 20.9919 24.561 20.6284 23.9354C20.2649 23.3157 20.5926 22.982 20.9025 22.6722C21.1825 22.3921 21.5281 21.9452 21.8439 21.5877C22.1597 21.2242 22.261 20.9621 22.4696 20.5509C22.6781 20.1338 22.5768 19.7763 22.416 19.4665C22.261 19.1566 21.0097 16.0999 20.4854 14.8546C19.967 13.6152 19.4426 13.6629 19.0792 13.6629C18.7157 13.6629 18.0424 13.7701 18.0424 13.7701C18.0424 13.7701 16.7911 13.9251 16.2131 14.5447C15.6411 15.1644 14.0264 16.666 14.0264 19.7227C14.0264 22.7794 16.2668 25.7289 16.5766 26.14C16.8924 26.5571 20.9025 33.0281 27.2662 35.5128C33.6299 37.9975 33.6299 37.1692 34.7739 37.062C35.918 36.9607 38.4742 35.5604 38.9985 34.1125C39.5229 32.6646 39.5229 31.4193 39.3679 31.1631H39.362Z" fill="white"/>
</svg>
