<svg width="30" height="20" viewBox="0 0 30 20" fill="none" xmlns="http://www.w3.org/2000/svg">
<path d="M2 8.75C1.30964 8.75 0.75 9.30964 0.75 10C0.75 10.6904 1.30964 11.25 2 11.25L2 8.75ZM28.8839 10.8839C29.372 10.3957 29.372 9.60427 28.8839 9.11611L20.9289 1.16116C20.4408 0.673008 19.6493 0.673008 19.1612 1.16116C18.673 1.64932 18.673 2.44078 19.1612 2.92893L26.2322 10L19.1612 17.0711C18.673 17.5592 18.673 18.3507 19.1612 18.8388C19.6493 19.327 20.4408 19.327 20.9289 18.8388L28.8839 10.8839ZM2 10L2 11.25L28 11.25L28 10L28 8.75L2 8.75L2 10Z" fill="#323234"/>
</svg>
