<svg width="59" height="35" viewBox="0 0 59 35" fill="none" xmlns="http://www.w3.org/2000/svg">
<path d="M37.0944 18.1993C36.8558 18.1687 36.5719 18.0949 36.2419 17.9786C35.9119 17.8622 35.5477 17.684 35.1508 17.4454C34.7531 17.2061 34.3347 16.878 33.8947 16.4612C33.5401 16.1302 33.1856 15.738 32.8311 15.2839C32.4766 14.8305 32.1309 14.3578 31.795 13.8672C31.459 13.3766 31.1439 12.9016 30.8511 12.4416C30.5582 11.9815 30.3018 11.5751 30.0818 11.2195H30.1361C30.1606 11.2195 30.1821 11.2225 30.2 11.2284C30.2178 11.2351 30.2394 11.2374 30.2639 11.2374C30.5084 11.2374 30.8228 11.1457 31.2078 10.9615C31.5928 10.7773 32.0024 10.529 32.4364 10.2166C32.8705 9.9042 33.3075 9.54257 33.7475 9.13173C34.1875 8.72089 34.5852 8.28246 34.9397 7.81645C35.2942 7.35044 35.5811 6.87249 35.8019 6.38187C36.0219 5.89199 36.1319 5.4133 36.1319 4.94729C36.1319 4.6043 35.9758 4.25461 35.6644 3.89894C35.3522 3.54328 35.0073 3.21819 34.6283 2.92441C34.1883 2.58143 33.6933 2.24962 33.1433 1.93124C33.1433 1.90664 33.0333 1.95585 32.8133 2.07813C32.5932 2.20116 32.3056 2.39129 31.9511 2.64853C31.5965 2.90577 31.2056 3.23086 30.7775 3.62306C30.3494 4.01526 29.9339 4.46338 29.5303 4.96593C29.5913 4.63487 29.6433 4.32246 29.6864 4.02794C29.7288 3.73341 29.7503 3.46424 29.7503 3.21893C29.7503 2.88788 29.7072 2.60901 29.6217 2.3816C29.5363 2.15493 29.395 1.99238 29.2003 1.89396C29.0286 1.82014 28.8183 1.74409 28.5678 1.66431C28.3173 1.58453 28.0698 1.50773 27.8253 1.43466C27.5436 1.36084 27.2567 1.2818 26.9631 1.19531C26.6086 1.37948 26.2206 1.6397 25.7984 1.97673C25.377 2.31375 24.9764 2.71862 24.5974 3.1906C24.2183 3.66258 23.9039 4.19272 23.6534 4.78176C23.403 5.37006 23.2773 6.01428 23.2773 6.71293C23.2773 6.88517 23.284 7.05368 23.2959 7.21921C23.3078 7.38473 23.3323 7.55324 23.3695 7.72548C23.3814 7.7993 23.452 7.87908 23.5798 7.96483C23.7084 8.05058 23.8548 8.13036 24.0199 8.20417C24.1849 8.27799 24.3499 8.33615 24.5149 8.37865C24.6799 8.4219 24.8055 8.44277 24.8909 8.44277C24.9519 8.44277 24.9824 8.43084 24.9824 8.40624C24.9824 8.21014 24.9608 8.01404 24.9184 7.81794C24.8753 7.62184 24.8545 7.41978 24.8545 7.211C24.8545 6.5735 24.94 5.94493 25.1109 5.32532C25.2819 4.70645 25.487 4.15767 25.7249 3.67898C25.9635 3.20029 26.208 2.81406 26.4585 2.52029C26.7089 2.22651 26.92 2.07888 27.091 2.07888C27.311 2.07888 27.421 2.29958 27.421 2.74099C27.421 3.03551 27.3756 3.3606 27.2835 3.71552C27.192 4.07118 27.0635 4.48202 26.8985 4.94804C26.7335 5.41405 26.5439 5.95985 26.3299 6.58468C26.1158 7.21026 25.8869 7.94619 25.6424 8.79173C25.4833 9.34349 25.3213 9.93551 25.1563 10.5671C24.9913 11.1993 24.8441 11.8331 24.7163 12.4706C24.5877 13.1081 24.4807 13.7307 24.3952 14.3377C24.3097 14.9446 24.2666 15.4934 24.2666 15.984C24.2666 16.5604 24.3276 17.0145 24.4502 17.3455C24.4992 17.4924 24.6152 17.6274 24.7988 17.7504C24.9824 17.8734 25.2053 17.9771 25.4684 18.0628C25.7316 18.1486 26.0303 18.2127 26.367 18.2559C26.703 18.2984 27.0479 18.32 27.4031 18.32C27.5377 18.32 27.6625 18.3171 27.7792 18.3111C27.8952 18.3044 28.0208 18.2954 28.1553 18.2835C27.9234 17.9771 27.7584 17.5849 27.6603 17.1062C27.5622 16.6282 27.5131 16.0944 27.5131 15.5061C27.5131 14.7217 27.58 13.8754 27.7146 12.968C27.8483 12.0605 28.0141 11.165 28.2096 10.2822C28.3679 10.4053 28.521 10.6133 28.6681 10.9078C28.8153 11.2023 28.9617 11.5513 29.1081 11.9562C29.2553 12.361 29.4106 12.8054 29.5757 13.2893C29.7407 13.7732 29.9175 14.2639 30.1071 14.7604C30.2966 15.257 30.504 15.7476 30.7307 16.2316C30.9566 16.7162 31.2101 17.1539 31.4918 17.5468C32.0663 18.3685 32.6713 19.0306 33.3068 19.5332C33.9422 20.0357 34.5354 20.287 35.0854 20.287C35.3663 20.287 35.6658 20.1826 35.984 19.9738C36.3013 19.7651 36.5919 19.5354 36.8551 19.2841C37.1182 19.0321 37.3344 18.7995 37.5061 18.5847C37.6771 18.37 37.7626 18.2567 37.7626 18.244H37.6154C37.5054 18.244 37.3315 18.2283 37.0929 18.1978L37.0944 18.1993ZM28.9811 9.72003C28.6629 9.84902 28.4244 9.94371 28.266 10.0049C28.3634 9.57538 28.4645 9.16155 28.5693 8.76339C28.6726 8.36523 28.7737 7.98794 28.8718 7.63228L28.9818 7.24605C29.5073 6.55933 30.0327 5.97401 30.559 5.48936C31.0844 5.00545 31.5765 4.61325 32.0351 4.31202C32.4937 4.01153 32.9032 3.79456 33.2637 3.65885C33.6241 3.5239 33.9021 3.45679 34.0983 3.45679C34.3057 3.45679 34.4098 3.51868 34.4098 3.64096V3.69613C34.2262 4.43206 33.9697 5.08821 33.6397 5.66458C33.3097 6.24095 32.9455 6.75244 32.5487 7.20056C32.151 7.64868 31.7326 8.0379 31.2926 8.36896C30.8526 8.70001 30.4371 8.97589 30.0454 9.1966C29.6537 9.4173 29.2999 9.59178 28.9818 9.72077L28.9811 9.72003Z" fill="white"/>
<path d="M48.8517 15.8354C48.6681 15.5163 48.4727 15.2165 48.2653 14.9339C48.5336 14.7378 48.8822 14.4836 49.3103 14.1704C49.7377 13.8573 50.1539 13.5389 50.5575 13.2138C50.9611 12.8894 51.3089 12.5949 51.6025 12.331C51.8961 12.067 52.0425 11.8866 52.0425 11.7881C52.0544 11.6532 52.0336 11.5488 51.9786 11.475C51.9236 11.4012 51.8656 11.3341 51.8047 11.2729C51.7311 11.2245 51.6397 11.1752 51.5297 11.126C51.4932 11.2118 51.3892 11.3378 51.2175 11.5033C51.0465 11.6688 50.8355 11.856 50.585 12.064C50.3345 12.2728 50.0625 12.4898 49.7689 12.7172C49.4753 12.9446 49.1944 13.1616 48.9253 13.3704C48.6562 13.5791 48.4177 13.7603 48.2103 13.9132C48.0022 14.0668 47.8558 14.1741 47.7703 14.2353C47.6967 14.1495 47.6172 14.0548 47.5317 13.9505C47.4462 13.8468 47.3451 13.7238 47.2292 13.5829C47.1133 13.4419 46.9698 13.2697 46.7981 13.0676C46.6264 12.8656 46.4191 12.6113 46.1745 12.3041C46.15 12.2676 46.1255 12.2124 46.1009 12.1386C45.9909 11.8567 45.9939 11.5652 46.1099 11.2647C46.2258 10.9642 46.4064 10.6794 46.651 10.4095C46.8955 10.1396 47.1831 9.89426 47.5131 9.67356C47.8431 9.45285 48.1672 9.2754 48.4846 9.14044C48.8027 9.00623 49.0925 8.9257 49.3556 8.90109C49.6188 8.87649 49.8113 8.9257 49.9331 9.04873C49.9822 9.14715 49.9361 9.27316 49.7956 9.42601C49.6552 9.57961 49.4656 9.74514 49.2271 9.9226C48.9885 10.1001 48.7254 10.2783 48.4385 10.4557C48.1508 10.6339 47.8795 10.7957 47.6224 10.9434C47.7324 11.1887 47.9063 11.3326 48.1441 11.3751C48.3827 11.4183 48.6391 11.3937 48.9142 11.3013C49.1892 11.2095 49.4582 11.0649 49.7206 10.8688C49.9837 10.6727 50.2 10.449 50.3717 10.197C50.5426 9.94571 50.6437 9.68176 50.6742 9.40588C50.7046 9.13 50.6281 8.86978 50.4452 8.62447C50.3107 8.4403 50.1301 8.2263 49.9042 7.98025C49.6775 7.73494 49.4337 7.5023 49.1706 7.28085C48.9075 7.06015 48.6354 6.87001 48.3545 6.71045C48.0735 6.55163 47.8104 6.45918 47.5659 6.43457C46.9668 6.45918 46.3953 6.64335 45.8512 6.98633C45.3072 7.33006 44.8486 7.75582 44.4762 8.26433C44.1031 8.77359 43.8407 9.32237 43.6876 9.91067C43.5345 10.499 43.5501 11.0507 43.7337 11.566C43.8132 11.8046 43.9292 12.0223 44.0815 12.2191C44.0726 12.24 44.0644 12.2609 44.0548 12.2832C43.9634 12.5039 43.8407 12.7552 43.6884 13.0371C43.5352 13.3189 43.3643 13.6134 43.1748 13.9199C42.9852 14.2263 42.7868 14.4963 42.5787 14.7289C42.3706 14.9615 42.1632 15.1457 41.9551 15.2806C41.747 15.4156 41.5448 15.4529 41.3501 15.391C41.2029 15.4767 41.1085 15.3999 41.0662 15.1613C41.0238 14.922 41.0298 14.5663 41.0848 14.0944C41.1398 13.6224 41.2401 13.055 41.3872 12.3928C41.5344 11.7307 41.7358 11.0134 41.9923 10.241C42.1268 9.8361 42.1052 9.51176 41.9283 9.26645C41.7514 9.02114 41.5218 8.82802 41.2408 8.6871C40.9599 8.54618 40.6663 8.44477 40.3608 8.38363C40.0553 8.32249 39.8413 8.27924 39.7194 8.25464C39.5603 8.81833 39.3924 9.43794 39.2147 10.112C39.0378 10.7868 38.8394 11.4429 38.6186 12.0804C38.3986 12.7179 38.1541 13.31 37.8851 13.8558C37.616 14.4016 37.3165 14.8273 36.9865 15.1338C36.6929 15.4283 36.4885 15.5357 36.3725 15.4559C36.2566 15.3761 36.1986 15.186 36.1986 14.8855C36.1986 14.585 36.2469 14.2144 36.345 13.773C36.4431 13.3316 36.5621 12.8932 36.7025 12.4577C36.843 12.023 36.9902 11.6301 37.1425 11.2804C37.2957 10.9314 37.4332 10.701 37.5551 10.5907C37.6041 10.5415 37.5372 10.4341 37.3536 10.2686C37.17 10.103 36.9255 9.97405 36.62 9.88233C36.3146 9.79062 35.9749 9.78093 35.6025 9.85475C35.2294 9.92856 34.8905 10.1739 34.585 10.5907C34.4631 10.836 34.3531 11.1119 34.255 11.4183C34.1569 11.7248 34.0744 12.0499 34.0075 12.3928C33.9406 12.7366 33.8945 13.0893 33.87 13.4509C33.8455 13.8125 33.8522 14.1592 33.8886 14.4903C33.9741 14.9198 34.197 15.2717 34.5583 15.5483C34.9187 15.8242 35.3498 16.0479 35.8508 16.2201C36.1927 16.3178 36.4952 16.3215 36.7583 16.2291C37.0214 16.1374 37.2563 15.9868 37.4644 15.7787C37.6717 15.5707 37.8553 15.3187 38.0144 15.0249C38.1727 14.7304 38.3169 14.4336 38.4455 14.1324C38.574 13.8319 38.69 13.5411 38.7941 13.2585C38.8974 12.9767 38.9984 12.7433 39.0966 12.5591C38.913 13.2339 38.8305 13.8095 38.8491 14.2882C38.8669 14.7669 38.968 15.1561 39.1516 15.4559C39.3344 15.7564 39.5856 15.9741 39.903 16.109C40.2203 16.244 40.5816 16.3051 40.9844 16.2932C41.278 16.3051 41.5775 16.2313 41.883 16.0725C42.1885 15.9137 42.4821 15.7079 42.763 15.4566C43.044 15.2053 43.3063 14.9295 43.5516 14.629C43.7961 14.3285 44.0065 14.034 44.1841 13.7462C44.361 13.4583 44.4985 13.2004 44.5966 12.9737C44.6219 12.914 44.6442 12.8589 44.662 12.8074C44.7995 12.9319 44.943 13.0542 45.0916 13.1758C45.3852 13.4151 45.678 13.6507 45.9716 13.8841C46.2652 14.1175 46.5097 14.3807 46.7052 14.6752C46.4243 14.8586 46.0972 15.1106 45.7241 15.429C45.351 15.7482 44.9749 16.1008 44.5966 16.4871C44.2176 16.8733 43.8571 17.2812 43.5152 17.7106C43.1733 18.1401 42.8894 18.5532 42.6627 18.9521C42.4367 19.3503 42.2896 19.7246 42.2227 20.0743C42.1558 20.424 42.2078 20.7148 42.3787 20.9481C42.5133 21.1323 42.6902 21.3463 42.9102 21.5916C43.1302 21.8369 43.3688 22.0703 43.6252 22.291C43.8816 22.5117 44.1477 22.7018 44.4227 22.8614C44.6977 23.0202 44.9571 23.1127 45.2016 23.1373C45.6052 23.1246 46.0021 23.0053 46.3938 22.7786C46.7847 22.5512 47.1549 22.2634 47.5027 21.9137C47.8506 21.564 48.1627 21.1688 48.4377 20.7274C48.7127 20.286 48.9357 19.8349 49.1074 19.3756C49.2783 18.9156 49.3854 18.4652 49.4285 18.0238C49.4708 17.5824 49.4315 17.1902 49.3096 16.8465C49.1869 16.4908 49.0346 16.1538 48.851 15.8346L48.8517 15.8354ZM47.3578 16.5445C47.2537 16.9553 47.0828 17.3721 46.8442 17.7949C46.6056 18.2177 46.3187 18.6285 45.9828 19.0274C45.6468 19.4256 45.3131 19.7663 44.9838 20.0482C44.6538 20.33 44.3513 20.5358 44.0763 20.6641C43.8013 20.793 43.6088 20.7953 43.4988 20.673C43.3769 20.5008 43.3524 20.2801 43.4252 20.0109C43.4988 19.741 43.6296 19.4472 43.8192 19.1281C44.0087 18.8089 44.2473 18.4749 44.5342 18.1259C44.8211 17.777 45.1236 17.4362 45.4417 17.1052C45.7591 16.7741 46.0831 16.4677 46.4131 16.1858C46.7431 15.904 47.0426 15.6646 47.3117 15.4685C47.4455 15.775 47.4611 16.1336 47.3578 16.5445Z" fill="white"/>
<path d="M58.9527 14.3643C57.18 15.3821 54.9859 15.7624 52.3704 15.5044C53.4823 14.8177 54.4634 14.1153 55.313 13.398C56.1625 12.6807 56.8441 11.9418 57.3569 11.1813C57.8705 10.4215 58.1789 9.70716 58.283 9.03834C58.3863 8.37026 58.335 7.79389 58.1269 7.30924C57.9188 6.82458 57.5457 6.45102 57.0083 6.18707C56.4702 5.92312 55.4802 5.8836 54.0383 6.06777C52.5956 6.2512 51.6644 6.71125 51.2422 7.44718C50.8208 8.18236 50.8111 8.91233 51.2147 9.63558C51.6183 10.3596 52.1408 10.7123 52.7822 10.6936C53.4236 10.675 53.8792 10.4945 54.1483 10.1508C53.9038 10.1508 53.7083 10.0621 53.5619 9.88388C53.4154 9.70642 53.3054 9.49168 53.2319 9.2404C53.1583 8.98913 53.1338 8.71325 53.1583 8.41276C53.1828 8.11302 53.2497 7.83639 53.3597 7.58512C53.4697 7.33384 53.6191 7.1191 53.8086 6.9409C53.9982 6.76344 54.2271 6.67397 54.4961 6.67397C54.8997 6.67397 55.1993 6.81787 55.3947 7.10643C55.5902 7.39498 55.6853 7.79315 55.6787 8.30241C55.672 8.81167 55.5501 9.38505 55.3122 10.0226C55.0736 10.6601 54.7377 11.3349 54.3036 12.0454C53.8696 12.7568 53.3196 13.4741 52.6536 14.1973C51.9877 14.9213 51.2266 15.5954 50.3711 16.2202C50.4937 16.7839 50.6156 17.0292 50.7375 16.9561C51.8739 16.6251 52.913 16.5237 53.854 16.6534C54.7949 16.7824 55.5501 16.9136 56.1187 17.0486C56.6872 17.1835 57.2372 17.1835 57.7687 17.0486C58.3008 16.9136 58.6517 16.6318 58.8233 16.2023C58.9943 15.7728 59.0374 15.1599 58.9519 14.3628L58.9527 14.3643Z" fill="white"/>
<path d="M7.78339 16.8845L7.78488 16.886C9.17104 15.9062 9.34719 13.7931 7.16724 10.8867L4.41498 7.20257L4.30052 7.04897C4.26336 6.99976 4.22842 6.9498 4.19423 6.8991C3.14922 5.33851 3.41382 2.98756 5.30168 1.80351C5.30168 1.80351 5.30168 1.80351 5.30093 1.80351C6.82014 0.936347 7.76109 1.00718 9.04692 1.49109C6.89892 -1.35197 2.32867 0.397261 0.987848 2.37764C0.509195 3.08523 0.389531 3.52888 0.302571 3.75704C-0.480072 5.81347 0.283246 8.36425 2.27219 10.786C3.56916 12.3653 7.73582 16.833 7.78339 16.8837V16.8845Z" fill="white"/>
<path d="M12.8126 1.83739C12.8126 1.83739 12.8126 1.83739 12.8118 1.83739C14.7502 3.07811 14.9457 5.54687 13.7647 7.0918L10.8623 10.9027C8.65558 13.7897 8.81315 15.9043 10.1896 16.8968C10.1896 16.8968 14.4388 12.4252 15.7581 10.849C17.7693 8.44586 18.5557 5.90179 17.7924 3.8379C17.7076 3.609 17.5924 3.16386 17.1205 2.45179C15.7975 0.458736 11.2436 -1.333 9.07031 1.49068C10.3606 1.0187 11.3023 0.956813 12.8133 1.83739H12.8126Z" fill="white"/>
<path d="M14.245 17.9381L8.40379 17.9545C3.97328 17.959 2.11887 19.6553 2.1211 21.7445L12.291 21.7236C12.291 21.7236 12.2917 21.7236 12.2932 21.7236C16.3194 21.7244 19.6001 16.7302 18.6012 13.0908C18.8457 15.8981 16.6167 17.9359 14.245 17.9389V17.9381Z" fill="white"/>
<path d="M9.54037 26.9453C12.4279 26.9453 13.2195 28.2218 13.2195 29.7459V29.7571C13.2195 31.2804 12.4279 32.5576 9.54037 32.5576H2.13908V34.371H0V26.9461H9.54037V26.9453ZM11.0804 29.7459C11.0804 29.1881 10.7593 28.8765 9.54037 28.8765H2.13908V30.6257H9.54037C10.7593 30.6257 11.0804 30.3148 11.0804 29.7563V29.7451V29.7459Z" fill="white"/>
<path d="M14.6797 34.3702V26.9453H16.9258V34.3702H14.6797Z" fill="white"/>
<path d="M26.7678 30.7238L31.816 34.3722H28.4684L25.0242 31.8721L21.6015 34.3722H18.2539L23.2701 30.7238L18.2539 26.9473H21.6015L25.0242 29.5435L28.4573 26.9473H31.8049L26.7671 30.7238H26.7678Z" fill="white"/>
<path d="M45.6377 26.9451V28.7368H35.2953V29.8098H44.5681V31.5262H35.2953V32.5775H45.6377V34.3693H33.1562V26.9443H45.6377V26.9451Z" fill="white"/>
<path d="M49.5586 26.9453V32.3317H59.0023V34.3702H47.3125V26.9453H49.5586Z" fill="white"/>
</svg>
