<svg width="174" height="70" viewBox="0 0 174 70" fill="none" xmlns="http://www.w3.org/2000/svg">
<path d="M23.3117 50.4393L23.2841 50.4781C23.2841 50.4781 10.6979 36.9939 6.79505 32.2456C0.846947 25.0068 -1.43569 17.3807 0.904909 11.2322C1.16436 10.5515 1.52042 9.22327 2.95293 7.1092C6.96342 1.18759 20.6372 -4.04224 27.06 4.45831C23.0882 2.96407 20.2176 2.78698 15.4095 5.6537C10.0907 8.82204 9.18533 16.1715 12.8646 21.072L18.3021 28.3606C21.4404 32.5444 25.6827 40.2149 23.3173 50.4393H23.3117Z" fill="white"/>
<path d="M23.2841 50.4753L8.36557 30.4746C8.36557 30.4746 8.36557 30.4746 8.36281 30.4691C2.42851 22.5801 7.29188 8.7916 15.8566 5.38806C10.0244 9.0434 9.37302 16.4177 12.8618 21.0693L21.4376 32.5417C27.9598 41.2332 27.4299 47.5477 23.2841 50.4753Z" fill="white"/>
<path d="M13.1737 6.86569C8.36005 12.5742 6.92202 22.4611 11.2278 28.308C11.2278 28.3108 11.2306 28.3135 11.2306 28.3135L22.0835 42.6887C22.6852 43.4856 23.2151 44.3434 23.6126 45.2676C24.4682 47.2599 24.7249 49.3076 23.2869 50.4753L8.51186 30.851C8.51186 30.851 8.51186 30.851 8.5091 30.8454C2.96673 23.4185 6.39759 11.7109 13.1737 6.86293V6.86569Z" fill="white"/>
<path d="M27.1235 4.45837C33.6236 -3.98131 47.2477 1.37301 51.203 7.33059C52.6162 9.45845 52.9613 10.7894 53.2152 11.4729C55.5006 17.6407 53.1489 25.2476 47.1318 32.431C43.1913 37.1389 30.5012 50.4832 30.4772 50.5085L30.4756 50.5064L30.4742 50.5085V50.5112C26.3561 47.5449 25.8869 41.2248 32.4864 32.5942L41.1671 21.1994C41.2834 21.0472 41.3955 20.8927 41.5029 20.7359C44.6554 16.0981 43.9209 9.07897 38.3158 5.49333C38.3173 5.49395 38.3189 5.4946 38.3204 5.49522C33.8018 2.86145 30.9846 3.04834 27.1235 4.45837Z" fill="white"/>
<path d="M6.33963 64.9943L36.7619 64.9334C36.7619 64.9334 36.7619 64.9334 36.7702 64.9334C48.8127 64.9362 58.6278 50.0077 55.6385 39.1274C56.37 47.52 49.7015 53.6104 42.6079 53.6187L25.1362 53.6658C11.882 53.6796 6.33411 58.7489 6.34239 64.9943H6.33963Z" fill="white"/>
<path d="M86.6901 34.26C87.3498 35.3282 88.1199 36.5484 89.0003 37.9292C89.8808 39.3073 90.8248 40.7351 91.835 42.2044C92.8425 43.6765 93.8803 45.0905 94.9429 46.4519C96.0056 47.8133 97.071 48.9894 98.1337 49.9827C99.453 51.2335 100.712 52.2158 101.904 52.9353C103.096 53.6519 104.187 54.186 105.178 54.5346C106.168 54.8833 107.021 55.1047 107.736 55.196C108.451 55.2873 108.975 55.3343 109.304 55.3343H109.743C109.743 55.3703 109.486 55.7107 108.973 56.3554C108.459 56.9974 107.808 57.6974 107.019 58.4529C106.229 59.2055 105.36 59.8945 104.405 60.5227C103.45 61.148 102.553 61.4607 101.708 61.4607C100.057 61.4607 98.2772 60.7053 96.3699 59.2C94.4627 57.6919 92.6465 55.7051 90.9214 53.2424C90.0768 52.0664 89.315 50.752 88.6388 49.2993C87.9598 47.8465 87.336 46.3744 86.7674 44.8857C86.1988 43.397 85.6661 41.9249 85.172 40.4722C84.678 39.0195 84.2087 37.6857 83.7699 36.4737C83.331 35.259 82.8894 34.213 82.4505 33.3303C82.0117 32.4476 81.5507 31.8222 81.076 31.4542C80.4881 34.1023 79.994 36.7864 79.591 39.5093C79.188 42.2321 78.9865 44.7695 78.9865 47.1216C78.9865 48.887 79.1328 50.4864 79.4254 51.9197C79.718 53.3531 80.2148 54.5291 80.9104 55.4506C80.5074 55.4865 80.1292 55.5142 79.7815 55.5336C79.4337 55.5529 79.0555 55.5612 78.6526 55.5612C77.5872 55.5612 76.5521 55.4976 75.5447 55.3675C74.5344 55.2375 73.6374 55.0466 72.848 54.7892C72.0586 54.5319 71.3906 54.2192 70.8386 53.8512C70.2893 53.4831 69.9388 53.0791 69.7925 52.6364C69.4254 51.643 69.2432 50.2816 69.2432 48.5549C69.2432 47.0856 69.3702 45.4392 69.6297 43.6184C69.8864 41.7976 70.2065 39.9326 70.593 38.0205C70.9794 36.1085 71.4182 34.2047 71.9123 32.312C72.4064 30.4193 72.8922 28.6428 73.3697 26.9881C74.1039 24.4507 74.7911 22.2453 75.4342 20.3692C76.0746 18.4931 76.646 16.8577 77.14 15.4603C77.6341 14.0629 78.0205 12.8316 78.2965 11.7635C78.5725 10.6981 78.7105 9.72135 78.7105 8.83864C78.7105 7.51596 78.3793 6.85186 77.7196 6.85186C77.2063 6.85186 76.5714 7.29183 75.8207 8.17453C75.0672 9.05724 74.3357 10.2167 73.6208 11.65C72.906 13.0834 72.2904 14.7298 71.7771 16.5865C71.2637 18.4433 71.007 20.3277 71.007 22.2397C71.007 22.8651 71.0705 23.4711 71.2002 24.0605C71.3272 24.6499 71.3934 25.2393 71.3934 25.8259C71.3934 25.9006 71.3023 25.9366 71.1174 25.9366C70.8607 25.9366 70.4853 25.8729 69.9885 25.7429C69.4944 25.6156 68.9976 25.4385 68.5035 25.2199C68.0095 24.9985 67.5678 24.7606 67.1842 24.5032C66.7978 24.2459 66.588 24.0079 66.5521 23.7866C66.4417 23.2719 66.3699 22.7655 66.3313 22.2702C66.2954 21.7749 66.2761 21.2685 66.2761 20.7538C66.2761 18.6591 66.6515 16.7277 67.405 14.9622C68.1558 13.1968 69.1025 11.6057 70.2397 10.1918C71.3768 8.77776 72.5775 7.563 73.8444 6.55024C75.1113 5.54025 76.2733 4.75716 77.3387 4.2065C78.2192 4.46384 79.0804 4.70182 79.925 4.92318C80.6592 5.14455 81.4017 5.37422 82.1524 5.61219C82.9032 5.85293 83.538 6.07983 84.0514 6.3012C84.6366 6.59728 85.0589 7.08429 85.3156 7.76223C85.5723 8.44294 85.702 9.27861 85.702 10.272C85.702 11.008 85.6385 11.816 85.5088 12.6988C85.379 13.5815 85.2245 14.5195 85.0423 15.5129C86.254 14.0048 87.4988 12.6628 88.7851 11.4868C90.0685 10.3107 91.2416 9.33395 92.307 8.56193C93.3696 7.78991 94.2336 7.21988 94.8932 6.85186C95.5529 6.48383 95.8841 6.33717 95.8841 6.41189C97.5347 7.36931 99.0197 8.3627 100.342 9.38929C101.479 10.272 102.514 11.246 103.45 12.3141C104.385 13.3822 104.852 14.4282 104.852 15.4576C104.852 16.8549 104.521 18.2883 103.861 19.7604C103.201 21.2325 102.337 22.6659 101.275 24.0633C100.209 25.4606 99.0197 26.775 97.6975 28.0064C96.3782 29.2378 95.0644 30.3225 93.7643 31.2605C92.4616 32.1986 91.2333 32.9429 90.0768 33.4936C88.9203 34.0442 87.9763 34.3209 87.2421 34.3209C87.1676 34.3209 87.1041 34.3126 87.0489 34.2933C86.9937 34.2739 86.9302 34.2656 86.8557 34.2656H86.6901V34.26ZM81.2416 30.6185C81.7191 30.4359 82.434 30.1509 83.3862 29.7635C84.3385 29.3761 85.4039 28.8531 86.5769 28.1918C87.75 27.5304 88.9976 26.7031 90.3197 25.7097C91.639 24.7163 92.8977 23.5486 94.09 22.2065C95.2824 20.8645 96.3727 19.3287 97.3636 17.5993C98.3545 15.8726 99.1245 13.9024 99.6738 11.6971V11.531C99.6738 11.163 99.3619 10.9804 98.7381 10.9804C98.1502 10.9804 97.3167 11.1824 96.2347 11.5864C95.1527 11.9904 93.9244 12.6434 92.5471 13.5455C91.1726 14.4476 89.6931 15.6236 88.1171 17.0763C86.5383 18.529 84.9622 20.2862 83.3862 22.3449L83.055 23.5043C82.7597 24.5724 82.4588 25.7014 82.1469 26.8968C81.835 28.0922 81.5314 29.3346 81.2388 30.6213L81.2416 30.6185Z" fill="white"/>
<path d="M98.1364 44.0805C98.026 43.0871 98.0094 42.0495 98.0812 40.9647C98.1557 39.88 98.2937 38.823 98.4925 37.7936C98.694 36.7643 98.9424 35.7903 99.2349 34.8688C99.5303 33.9501 99.8587 33.1228 100.226 32.3867C101.142 31.136 102.161 30.3999 103.279 30.1813C104.396 29.96 105.415 29.9876 106.331 30.2643C107.248 30.5411 107.982 30.9257 108.531 31.4238C109.08 31.9191 109.282 32.2428 109.136 32.3895C108.768 32.7215 108.354 33.4105 107.896 34.4593C107.438 35.508 106.996 36.684 106.577 37.9901C106.155 39.2962 105.796 40.6106 105.503 41.9332C105.208 43.2559 105.064 44.3711 105.064 45.2704C105.064 46.1697 105.238 46.7425 105.586 46.9804C105.934 47.2212 106.549 46.8974 107.43 46.0147C108.421 45.096 109.318 43.8176 110.126 42.1795C110.932 40.5441 111.667 38.7704 112.326 36.8556C112.986 34.9435 113.582 32.9761 114.115 30.9534C114.648 28.9306 115.15 27.0739 115.627 25.3832C115.995 25.4579 116.635 25.5852 117.554 25.7706C118.47 25.956 119.351 26.2576 120.195 26.6809C121.04 27.1043 121.727 27.6826 122.26 28.4187C122.79 29.1547 122.856 30.1288 122.453 31.3435C121.683 33.6596 121.079 35.8124 120.637 37.7964C120.198 39.7832 119.895 41.485 119.729 42.899C119.563 44.3157 119.544 45.3811 119.674 46.0977C119.801 46.8144 120.088 47.0441 120.527 46.7867C121.112 46.9721 121.719 46.8615 122.343 46.4547C122.967 46.0507 123.59 45.5 124.214 44.8C124.838 44.1026 125.434 43.2919 126.003 42.3732C126.571 41.4545 127.085 40.5718 127.543 39.7251C128.001 38.8783 128.368 38.1257 128.644 37.4644C128.92 36.803 129.094 36.3437 129.166 36.0863C129.348 36.1223 129.616 36.2524 129.964 36.4737C130.311 36.6951 130.54 37.2098 130.651 38.0178C130.687 38.3498 130.56 38.8534 130.264 39.5342C129.969 40.2149 129.558 40.9869 129.025 41.8502C128.492 42.7136 127.86 43.5963 127.126 44.4983C126.392 45.4004 125.603 46.2278 124.761 46.9804C123.916 47.7359 123.036 48.3502 122.119 48.8289C121.203 49.3076 120.303 49.5262 119.423 49.4902C118.211 49.5262 117.129 49.3435 116.177 48.9395C115.222 48.5356 114.471 47.8825 113.922 46.9804C113.372 46.0811 113.069 44.9106 113.014 43.4773C112.958 42.0439 113.207 40.3145 113.756 38.2917C113.461 38.8424 113.16 39.5425 112.848 40.3892C112.536 41.2359 112.188 42.1076 111.802 43.0096C111.415 43.9117 110.985 44.8027 110.51 45.6854C110.033 46.5681 109.483 47.3236 108.86 47.9462C108.236 48.5715 107.529 49.0226 106.74 49.2965C105.95 49.5732 105.042 49.5621 104.016 49.2688C102.511 48.7542 101.217 48.0817 100.138 47.2544C99.0555 46.427 98.3876 45.37 98.1281 44.0833L98.1364 44.0805ZM129.006 36.0808C129.188 35.8235 129.243 35.8235 129.171 36.0808H129.006Z" fill="white"/>
<path d="M139.348 33.4327C140.118 32.9927 140.935 32.5057 141.796 31.9717C142.657 31.4376 143.447 30.9063 144.162 30.3723C144.877 29.841 145.445 29.3429 145.868 28.8836C146.29 28.4242 146.425 28.0479 146.282 27.7518C145.914 27.3838 145.338 27.2371 144.548 27.3118C143.759 27.3866 142.887 27.6245 141.934 28.0285C140.979 28.4325 140.008 28.9666 139.017 29.6279C138.026 30.2892 137.165 31.0253 136.431 31.8333C135.696 32.6413 135.155 33.4963 134.808 34.3984C134.46 35.3005 134.449 36.1721 134.78 37.0189C134.852 37.2402 134.926 37.4062 135.001 37.5142C135.735 38.4328 136.356 39.1966 136.872 39.8026C137.386 40.4086 137.816 40.926 138.167 41.3466C138.515 41.77 138.818 42.138 139.075 42.4507C139.332 42.7634 139.569 43.0484 139.79 43.3057C140.046 43.1231 140.485 42.7993 141.109 42.34C141.733 41.8807 142.448 41.3383 143.254 40.7129C144.06 40.0876 144.904 39.4345 145.785 38.7538C146.665 38.0731 147.482 37.4201 148.233 36.7947C148.984 36.1694 149.619 35.6076 150.132 35.1123C150.645 34.617 150.957 34.2379 151.068 33.9806C151.399 34.1272 151.672 34.2739 151.893 34.4205C152.075 34.6059 152.252 34.8079 152.415 35.0265C152.58 35.2479 152.644 35.5606 152.608 35.9646C152.608 36.2607 152.169 36.8003 151.288 37.5916C150.408 38.383 149.362 39.2657 148.153 40.2398C146.941 41.2138 145.694 42.1712 144.41 43.1093C143.127 44.0473 142.081 44.811 141.275 45.3977C141.898 46.2444 142.486 47.1437 143.036 48.1011C143.585 49.0558 144.043 50.0685 144.41 51.1339C144.777 52.1632 144.896 53.3392 144.769 54.6647C144.639 55.9874 144.319 57.3405 143.806 58.7185C143.292 60.0965 142.622 61.4496 141.796 62.7723C140.971 64.095 140.035 65.2821 138.989 66.3308C137.943 67.3795 136.834 68.2429 135.661 68.9236C134.487 69.6043 133.295 69.9613 132.083 70C131.349 69.9253 130.571 69.6513 129.746 69.1726C128.92 68.6939 128.123 68.1239 127.353 67.4626C126.582 66.8012 125.868 66.1011 125.205 65.3651C124.545 64.629 124.013 63.9871 123.61 63.4337C123.096 62.7336 122.942 61.8619 123.143 60.8132C123.345 59.7645 123.786 58.6438 124.463 57.4484C125.142 56.253 125.995 55.0106 127.021 53.7239C128.048 52.4372 129.13 51.2141 130.267 50.0547C131.404 48.8953 132.531 47.8382 133.651 46.8836C134.769 45.9289 135.752 45.1735 136.596 44.6229C136.008 43.7402 135.277 42.9488 134.396 42.2515C133.516 41.5541 132.635 40.8458 131.755 40.1263C130.874 39.4096 130.057 38.6736 129.307 37.9209C128.553 37.1683 128.012 36.2939 127.684 35.3005C127.134 33.7564 127.088 32.1017 127.546 30.3363C128.004 28.5709 128.793 26.9244 129.911 25.3998C131.029 23.8751 132.406 22.5967 134.038 21.5673C135.669 20.538 137.386 19.9873 139.182 19.9126C139.917 19.9873 140.703 20.2613 141.548 20.74C142.393 21.2187 143.207 21.7887 143.996 22.45C144.786 23.1114 145.517 23.8115 146.196 24.5475C146.875 25.2836 147.416 25.9255 147.819 26.4789C148.368 27.215 148.597 27.9953 148.506 28.8227C148.415 29.65 148.112 30.4414 147.598 31.1941C147.085 31.9495 146.433 32.6192 145.644 33.2085C144.855 33.7979 144.049 34.2296 143.223 34.5063C142.398 34.783 141.628 34.855 140.913 34.7277C140.198 34.6004 139.674 34.1687 139.345 33.4299L139.348 33.4327ZM126.969 62.6146C127.3 62.9826 127.877 62.9743 128.702 62.5869C129.527 62.1995 130.436 61.5852 131.426 60.7385C132.417 59.8918 133.417 58.8707 134.424 57.6781C135.431 56.4827 136.295 55.2513 137.01 53.9812C137.725 52.7111 138.239 51.4604 138.55 50.229C138.862 48.9977 138.815 47.9213 138.412 47.0026C137.606 47.592 136.707 48.3087 135.716 49.1526C134.725 49.9994 133.753 50.918 132.798 51.9114C131.843 52.9048 130.935 53.9259 130.074 54.9718C129.213 56.0206 128.495 57.0223 127.927 57.9769C127.358 58.9316 126.963 59.8143 126.743 60.625C126.522 61.433 126.596 62.0944 126.963 62.6118L126.969 62.6146Z" fill="white"/>
<path d="M148.702 51.4715C148.335 51.6928 147.968 50.9568 147.601 49.2661C150.168 47.39 152.45 45.3672 154.452 43.1978C156.45 41.0284 158.1 38.8783 159.403 36.7449C160.706 34.6115 161.714 32.5887 162.428 30.6766C163.143 28.7646 163.51 27.0462 163.53 25.5188C163.549 23.9941 163.262 22.7987 162.677 21.9326C162.089 21.0693 161.192 20.6348 159.98 20.6348C159.174 20.6348 158.484 20.9032 157.916 21.4345C157.347 21.9686 156.897 22.6105 156.569 23.3659C156.237 24.1186 156.036 24.9487 155.964 25.848C155.89 26.7501 155.964 27.5775 156.185 28.3301C156.406 29.0856 156.734 29.7275 157.176 30.2616C157.615 30.7956 158.203 31.0613 158.937 31.0613C158.131 32.0906 156.765 32.633 154.838 32.6883C152.911 32.7437 151.344 31.6866 150.135 29.5172C148.923 27.3478 148.951 25.159 150.218 22.9536C151.484 20.7483 154.28 19.3675 158.608 18.8168C162.936 18.2662 165.906 18.3852 167.521 19.1765C169.136 19.9679 170.253 21.0886 170.877 22.5414C171.501 23.9941 171.656 25.7235 171.344 27.7269C171.032 29.7331 170.104 31.8748 168.564 34.1521C167.024 36.4322 164.979 38.6487 162.428 40.7987C159.878 42.9488 156.936 45.0545 153.596 47.116C161.446 47.8881 168.031 46.748 173.35 43.6959C173.607 46.0867 173.477 47.9268 172.964 49.2135C172.45 50.5002 171.396 51.3469 169.801 51.7509C168.205 52.1549 166.555 52.1549 164.849 51.7509C163.143 51.3469 160.877 50.9512 158.054 50.5638C155.227 50.1764 152.111 50.4808 148.699 51.4742L148.702 51.4715Z" fill="white"/>
</svg>
